<svg width="28" height="34" viewBox="0 0 54 62" fill="none" xmlns="http://www.w3.org/2000/svg">
    <path
        d="M49.4606 42.8525C52.199 44.1674 53.0884 48.5025 51.4301 52.7354C49.7718 56.9683 46.1743 59.5457 43.2714 58.6505L43.003 58.557L9.47803 45.423C6.53101 44.2684 5.52935 39.7915 7.2406 35.4234C8.95188 31.0553 12.7281 28.4503 15.6751 29.6048L49.1337 42.7128L49.4606 42.8525Z"
        fill="url(#paint0_radial_215_84)" />
    <path
        d="M49.4606 42.8525C52.199 44.1674 53.0884 48.5025 51.4301 52.7354C49.7718 56.9683 46.1743 59.5457 43.2714 58.6505L43.003 58.557L9.47803 45.423C6.53101 44.2684 5.52935 39.7915 7.2406 35.4234C8.95188 31.0553 12.7281 28.4503 15.6751 29.6048L49.1337 42.7128L49.4606 42.8525Z"
        fill="url(#paint1_linear_215_84)" />
    <path
        d="M49.4606 42.8525C52.199 44.1674 53.0884 48.5025 51.4301 52.7354C49.7718 56.9683 46.1743 59.5457 43.2714 58.6505L43.003 58.557L9.47803 45.423C6.53101 44.2684 5.52935 39.7915 7.2406 35.4234C8.95188 31.0553 12.7281 28.4503 15.6751 29.6048L49.1337 42.7128L49.4606 42.8525Z"
        fill="url(#paint2_radial_215_84)" />
    <path
        d="M49.4606 42.8525C52.199 44.1674 53.0884 48.5025 51.4301 52.7354C49.7718 56.9683 46.1743 59.5457 43.2714 58.6505L43.003 58.557L9.47803 45.423C6.53101 44.2684 5.52935 39.7915 7.2406 35.4234C8.95188 31.0553 12.7281 28.4503 15.6751 29.6048L49.1337 42.7128L49.4606 42.8525Z"
        fill="url(#paint3_radial_215_84)" />
    <path
        d="M13.4613 29.3937L36.1028 38.2639L35.1809 40.6172L10.3884 30.9043C11.3592 30.0939 12.4175 29.5668 13.4613 29.3937Z"
        fill="url(#paint4_linear_215_84)" />
    <path
        d="M6.4761 40.8404L16.7658 44.8715L16.5352 48.1877L9.47791 45.4229C7.79672 44.7643 6.74877 43.0245 6.4761 40.8404Z"
        fill="url(#paint5_linear_215_84)" />
    <path
        d="M41.5565 55.7422C42.0441 55.9333 42.3484 56.3202 42.2363 56.6064C42.1241 56.8927 41.6379 56.9699 41.1503 56.7789L29.0862 52.0526C28.5986 51.8615 28.2943 51.4746 28.4064 51.1884C28.5186 50.9021 29.0048 50.8249 29.4924 51.0159L41.5565 55.7422Z"
        fill="url(#paint6_linear_215_84)" />
    <path
        d="M28.8978 47.3326C29.3854 47.5236 29.6897 47.9105 29.5776 48.1968C29.4654 48.483 28.9792 48.5602 28.4917 48.3692L21.7782 45.7391C21.2906 45.5481 20.9862 45.1612 21.0984 44.8749C21.2105 44.5886 21.6967 44.5114 22.1843 44.7024L28.8978 47.3326Z"
        fill="url(#paint7_linear_215_84)" />
    <path
        d="M11.4292 30.1641L18.1735 32.8063C18.6416 32.9897 18.9337 33.361 18.826 33.6358C18.7184 33.9106 18.2517 33.9847 17.7837 33.8013L10.3884 30.9041C10.7262 30.6221 11.0744 30.3744 11.4292 30.1641Z"
        fill="url(#paint8_linear_215_84)" />
    <path
        d="M46.1668 38.279C46.6991 38.9293 46.4695 39.5733 45.6556 39.7126L37.9965 41.0239C37.3503 41.1823 36.1612 41.0012 34.8956 40.5054C33.1473 39.8205 31.9146 38.7943 32.1422 38.2133C32.2285 37.9932 32.5118 37.8686 32.9258 37.8358L42.9667 36.3411C43.7689 36.2217 44.8149 36.6275 45.3314 37.2585L46.1668 38.279Z"
        fill="url(#paint9_radial_215_84)" />
    <path
        d="M46.1668 38.279C46.6991 38.9293 46.4695 39.5733 45.6556 39.7126L37.9965 41.0239C37.3503 41.1823 36.1612 41.0012 34.8956 40.5054C33.1473 39.8205 31.9146 38.7943 32.1422 38.2133C32.2285 37.9932 32.5118 37.8686 32.9258 37.8358L42.9667 36.3411C43.7689 36.2217 44.8149 36.6275 45.3314 37.2585L46.1668 38.279Z"
        fill="url(#paint10_radial_215_84)" />
    <path
        d="M46.1668 38.279C46.6991 38.9293 46.4695 39.5733 45.6556 39.7126L37.9965 41.0239C37.3503 41.1823 36.1612 41.0012 34.8956 40.5054C33.1473 39.8205 31.9146 38.7943 32.1422 38.2133C32.2285 37.9932 32.5118 37.8686 32.9258 37.8358L42.9667 36.3411C43.7689 36.2217 44.8149 36.6275 45.3314 37.2585L46.1668 38.279Z"
        fill="url(#paint11_linear_215_84)" />
    <path
        d="M46.1668 38.279C46.6991 38.9293 46.4695 39.5733 45.6556 39.7126L37.9965 41.0239C37.3503 41.1823 36.1612 41.0012 34.8956 40.5054C33.1473 39.8205 31.9146 38.7943 32.1422 38.2133C32.2285 37.9932 32.5118 37.8686 32.9258 37.8358L42.9667 36.3411C43.7689 36.2217 44.8149 36.6275 45.3314 37.2585L46.1668 38.279Z"
        fill="url(#paint12_radial_215_84)" />
    <path
        d="M23.2661 54.0604C24.0986 53.9448 24.3675 53.3163 23.8647 52.6611L19.1346 46.4961C18.7679 45.9409 17.7725 45.2661 16.5066 44.7702C14.7585 44.0854 13.1568 44.0011 12.9292 44.5821C12.8429 44.8022 12.9663 45.0862 13.2478 45.3914L19.6011 53.3088C20.1087 53.9414 21.1522 54.3542 21.9598 54.2419L23.2661 54.0604Z"
        fill="url(#paint13_linear_215_84)" />
    <path
        d="M23.2661 54.0604C24.0986 53.9448 24.3675 53.3163 23.8647 52.6611L19.1346 46.4961C18.7679 45.9409 17.7725 45.2661 16.5066 44.7702C14.7585 44.0854 13.1568 44.0011 12.9292 44.5821C12.8429 44.8022 12.9663 45.0862 13.2478 45.3914L19.6011 53.3088C20.1087 53.9414 21.1522 54.3542 21.9598 54.2419L23.2661 54.0604Z"
        fill="url(#paint14_linear_215_84)" />
    <path
        d="M23.2661 54.0604C24.0986 53.9448 24.3675 53.3163 23.8647 52.6611L19.1346 46.4961C18.7679 45.9409 17.7725 45.2661 16.5066 44.7702C14.7585 44.0854 13.1568 44.0011 12.9292 44.5821C12.8429 44.8022 12.9663 45.0862 13.2478 45.3914L19.6011 53.3088C20.1087 53.9414 21.1522 54.3542 21.9598 54.2419L23.2661 54.0604Z"
        fill="url(#paint15_linear_215_84)" />
    <path
        d="M23.2661 54.0604C24.0986 53.9448 24.3675 53.3163 23.8647 52.6611L19.1346 46.4961C18.7679 45.9409 17.7725 45.2661 16.5066 44.7702C14.7585 44.0854 13.1568 44.0011 12.9292 44.5821C12.8429 44.8022 12.9663 45.0862 13.2478 45.3914L19.6011 53.3088C20.1087 53.9414 21.1522 54.3542 21.9598 54.2419L23.2661 54.0604Z"
        fill="url(#paint16_radial_215_84)" />
    <path
        d="M23.2661 54.0604C24.0986 53.9448 24.3675 53.3163 23.8647 52.6611L19.1346 46.4961C18.7679 45.9409 17.7725 45.2661 16.5066 44.7702C14.7585 44.0854 13.1568 44.0011 12.9292 44.5821C12.8429 44.8022 12.9663 45.0862 13.2478 45.3914L19.6011 53.3088C20.1087 53.9414 21.1522 54.3542 21.9598 54.2419L23.2661 54.0604Z"
        fill="url(#paint17_linear_215_84)" />
    <path
        d="M23.2661 54.0604C24.0986 53.9448 24.3675 53.3163 23.8647 52.6611L19.1346 46.4961C18.7679 45.9409 17.7725 45.2661 16.5066 44.7702C14.7585 44.0854 13.1568 44.0011 12.9292 44.5821C12.8429 44.8022 12.9663 45.0862 13.2478 45.3914L19.6011 53.3088C20.1087 53.9414 21.1522 54.3542 21.9598 54.2419L23.2661 54.0604Z"
        fill="url(#paint18_linear_215_84)" />
    <path
        d="M23.2661 54.0604C24.0986 53.9448 24.3675 53.3163 23.8647 52.6611L19.1346 46.4961C18.7679 45.9409 17.7725 45.2661 16.5066 44.7702C14.7585 44.0854 13.1568 44.0011 12.9292 44.5821C12.8429 44.8022 12.9663 45.0862 13.2478 45.3914L19.6011 53.3088C20.1087 53.9414 21.1522 54.3542 21.9598 54.2419L23.2661 54.0604Z"
        fill="url(#paint19_linear_215_84)" />
    <path
        d="M23.2661 54.0604C24.0986 53.9448 24.3675 53.3163 23.8647 52.6611L19.1346 46.4961C18.7679 45.9409 17.7725 45.2661 16.5066 44.7702C14.7585 44.0854 13.1568 44.0011 12.9292 44.5821C12.8429 44.8022 12.9663 45.0862 13.2478 45.3914L19.6011 53.3088C20.1087 53.9414 21.1522 54.3542 21.9598 54.2419L23.2661 54.0604Z"
        fill="url(#paint20_linear_215_84)" />
    <path
        d="M23.2661 54.0604C24.0986 53.9448 24.3675 53.3163 23.8647 52.6611L19.1346 46.4961C18.7679 45.9409 17.7725 45.2661 16.5066 44.7702C14.7585 44.0854 13.1568 44.0011 12.9292 44.5821C12.8429 44.8022 12.9663 45.0862 13.2478 45.3914L19.6011 53.3088C20.1087 53.9414 21.1522 54.3542 21.9598 54.2419L23.2661 54.0604Z"
        fill="url(#paint21_radial_215_84)" />
    <g filter="url(#filter0_i_215_84)">
        <path
            d="M40.7581 48.5545C42.4694 44.1864 46.2456 41.5813 49.1926 42.7358C52.1396 43.8904 53.1413 48.3673 51.4301 52.7354C49.7188 57.1035 45.9425 59.7086 42.9956 58.5541C40.0486 57.3995 39.0468 52.9226 40.7581 48.5545Z"
            fill="url(#paint22_linear_215_84)" />
    </g>
    <path
        d="M42.0434 49.0581C43.5573 45.1938 46.7134 42.8169 49.0929 43.7491C51.4723 44.6813 52.174 48.5696 50.6601 52.4338C49.1462 56.2981 45.99 58.675 43.6106 57.7428C41.2312 56.8106 40.5295 52.9223 42.0434 49.0581Z"
        fill="url(#paint23_linear_215_84)" />
    <path
        d="M44.0491 49.8441C45.1012 47.1587 47.2 45.4698 48.7368 46.0719C50.2737 46.674 50.6667 49.3391 49.6147 52.0245C48.5626 54.71 46.4638 56.3989 44.9269 55.7968C43.3901 55.1947 42.9971 52.5296 44.0491 49.8441Z"
        fill="url(#paint24_linear_215_84)" />
    <path
        d="M45.8996 50.5687C45.3224 52.0421 45.3889 53.4459 46.0481 53.7041C46.7073 53.9624 47.7097 52.9774 48.2869 51.504C48.8641 50.0306 48.7976 48.6268 48.1384 48.3686C47.4792 48.1103 46.4769 49.0953 45.8996 50.5687Z"
        fill="#E1A161" />
    <g filter="url(#filter1_f_215_84)">
        <path d="M22.3477 52.8486L15.9382 44.8074" stroke="url(#paint25_linear_215_84)"
            stroke-width="0.929209" stroke-linecap="round" />
    </g>
    <path
        d="M6.52308 41.0532C3.78466 42.368 2.89523 46.7031 4.55358 50.9361C6.21188 55.169 9.80938 57.7464 12.7122 56.8512L12.9807 56.7577L46.5056 43.6237C49.4526 42.4691 50.4543 37.9922 48.743 33.6241C47.0318 29.256 43.2556 26.6509 40.3086 27.8055L6.84997 40.9135L6.52308 41.0532Z"
        fill="url(#paint26_radial_215_84)" />
    <path
        d="M6.52308 41.0532C3.78466 42.368 2.89523 46.7031 4.55358 50.9361C6.21188 55.169 9.80938 57.7464 12.7122 56.8512L12.9807 56.7577L46.5056 43.6237C49.4526 42.4691 50.4543 37.9922 48.743 33.6241C47.0318 29.256 43.2556 26.6509 40.3086 27.8055L6.84997 40.9135L6.52308 41.0532Z"
        fill="url(#paint27_linear_215_84)" />
    <path
        d="M6.52308 41.0532C3.78466 42.368 2.89523 46.7031 4.55358 50.9361C6.21188 55.169 9.80938 57.7464 12.7122 56.8512L12.9807 56.7577L46.5056 43.6237C49.4526 42.4691 50.4543 37.9922 48.743 33.6241C47.0318 29.256 43.2556 26.6509 40.3086 27.8055L6.84997 40.9135L6.52308 41.0532Z"
        fill="url(#paint28_radial_215_84)" />
    <path
        d="M6.52308 41.0532C3.78466 42.368 2.89523 46.7031 4.55358 50.9361C6.21188 55.169 9.80938 57.7464 12.7122 56.8512L12.9807 56.7577L46.5056 43.6237C49.4526 42.4691 50.4543 37.9922 48.743 33.6241C47.0318 29.256 43.2556 26.6509 40.3086 27.8055L6.84997 40.9135L6.52308 41.0532Z"
        fill="url(#paint29_radial_215_84)" />
    <path
        d="M42.5221 27.5944L19.8806 36.4646L20.8025 38.8179L45.595 29.105C44.6242 28.2946 43.5659 27.7675 42.5221 27.5944Z"
        fill="url(#paint30_linear_215_84)" />
    <path
        d="M49.5073 39.041L39.2176 43.0722L39.4482 46.3884L46.5055 43.6236C48.1867 42.965 49.2346 41.2252 49.5073 39.041Z"
        fill="url(#paint31_linear_215_84)" />
    <path
        d="M14.4269 53.9429C13.9393 54.1339 13.635 54.5209 13.7471 54.8071C13.8593 55.0934 14.3455 55.1706 14.8331 54.9796L26.8972 50.2532C27.3848 50.0622 27.6891 49.6753 27.577 49.389C27.4648 49.1028 26.9786 49.0256 26.491 49.2166L14.4269 53.9429Z"
        fill="url(#paint32_linear_215_84)" />
    <path
        d="M27.0856 45.5332C26.598 45.7243 26.2937 46.1112 26.4058 46.3974C26.518 46.6837 27.0042 46.7609 27.4917 46.5699L34.2052 43.9398C34.6928 43.7488 34.9972 43.3618 34.885 43.0756C34.7729 42.7893 34.2867 42.7121 33.7991 42.9031L27.0856 45.5332Z"
        fill="url(#paint33_linear_215_84)" />
    <path
        d="M44.5542 28.3648L37.8099 31.007C37.3418 31.1904 37.0497 31.5617 37.1574 31.8365C37.265 32.1113 37.7317 32.1854 38.1997 32.002L45.595 29.1048C45.2572 28.8228 44.909 28.5751 44.5542 28.3648Z"
        fill="url(#paint34_linear_215_84)" />
    <path
        d="M9.8166 36.4797C9.28425 37.13 9.51387 37.7739 10.3278 37.9133L17.9869 39.2246C18.6331 39.383 19.8222 39.2019 21.0878 38.7061C22.8361 38.0211 24.0688 36.995 23.8412 36.414C23.7549 36.1938 23.4716 36.0692 23.0576 36.0365L13.0167 34.5418C12.2145 34.4224 11.1685 34.8282 10.652 35.4592L9.8166 36.4797Z"
        fill="url(#paint35_radial_215_84)" />
    <path
        d="M9.8166 36.4797C9.28425 37.13 9.51387 37.7739 10.3278 37.9133L17.9869 39.2246C18.6331 39.383 19.8222 39.2019 21.0878 38.7061C22.8361 38.0211 24.0688 36.995 23.8412 36.414C23.7549 36.1938 23.4716 36.0692 23.0576 36.0365L13.0167 34.5418C12.2145 34.4224 11.1685 34.8282 10.652 35.4592L9.8166 36.4797Z"
        fill="url(#paint36_radial_215_84)" />
    <path
        d="M9.8166 36.4797C9.28425 37.13 9.51387 37.7739 10.3278 37.9133L17.9869 39.2246C18.6331 39.383 19.8222 39.2019 21.0878 38.7061C22.8361 38.0211 24.0688 36.995 23.8412 36.414C23.7549 36.1938 23.4716 36.0692 23.0576 36.0365L13.0167 34.5418C12.2145 34.4224 11.1685 34.8282 10.652 35.4592L9.8166 36.4797Z"
        fill="url(#paint37_linear_215_84)" />
    <path
        d="M9.8166 36.4797C9.28425 37.13 9.51387 37.7739 10.3278 37.9133L17.9869 39.2246C18.6331 39.383 19.8222 39.2019 21.0878 38.7061C22.8361 38.0211 24.0688 36.995 23.8412 36.414C23.7549 36.1938 23.4716 36.0692 23.0576 36.0365L13.0167 34.5418C12.2145 34.4224 11.1685 34.8282 10.652 35.4592L9.8166 36.4797Z"
        fill="url(#paint38_radial_215_84)" />
    <path
        d="M32.7176 52.2611C31.8851 52.1455 31.6161 51.517 32.119 50.8618L36.849 44.6967C37.2157 44.1416 38.2112 43.4668 39.477 42.9709C41.2251 42.2861 42.8268 42.2018 43.0545 42.7828C43.1407 43.0029 43.0174 43.2869 42.7358 43.5921L36.3825 51.5095C35.8749 52.1421 34.8315 52.5549 34.0238 52.4426L32.7176 52.2611Z"
        fill="url(#paint39_linear_215_84)" />
    <path
        d="M32.7176 52.2611C31.8851 52.1455 31.6161 51.517 32.119 50.8618L36.849 44.6967C37.2157 44.1416 38.2112 43.4668 39.477 42.9709C41.2251 42.2861 42.8268 42.2018 43.0545 42.7828C43.1407 43.0029 43.0174 43.2869 42.7358 43.5921L36.3825 51.5095C35.8749 52.1421 34.8315 52.5549 34.0238 52.4426L32.7176 52.2611Z"
        fill="url(#paint40_linear_215_84)" />
    <path
        d="M32.7176 52.2611C31.8851 52.1455 31.6161 51.517 32.119 50.8618L36.849 44.6967C37.2157 44.1416 38.2112 43.4668 39.477 42.9709C41.2251 42.2861 42.8268 42.2018 43.0545 42.7828C43.1407 43.0029 43.0174 43.2869 42.7358 43.5921L36.3825 51.5095C35.8749 52.1421 34.8315 52.5549 34.0238 52.4426L32.7176 52.2611Z"
        fill="url(#paint41_linear_215_84)" />
    <path
        d="M32.7176 52.2611C31.8851 52.1455 31.6161 51.517 32.119 50.8618L36.849 44.6967C37.2157 44.1416 38.2112 43.4668 39.477 42.9709C41.2251 42.2861 42.8268 42.2018 43.0545 42.7828C43.1407 43.0029 43.0174 43.2869 42.7358 43.5921L36.3825 51.5095C35.8749 52.1421 34.8315 52.5549 34.0238 52.4426L32.7176 52.2611Z"
        fill="url(#paint42_radial_215_84)" />
    <path
        d="M32.7176 52.2611C31.8851 52.1455 31.6161 51.517 32.119 50.8618L36.849 44.6967C37.2157 44.1416 38.2112 43.4668 39.477 42.9709C41.2251 42.2861 42.8268 42.2018 43.0545 42.7828C43.1407 43.0029 43.0174 43.2869 42.7358 43.5921L36.3825 51.5095C35.8749 52.1421 34.8315 52.5549 34.0238 52.4426L32.7176 52.2611Z"
        fill="url(#paint43_linear_215_84)" />
    <path
        d="M32.7176 52.2611C31.8851 52.1455 31.6161 51.517 32.119 50.8618L36.849 44.6967C37.2157 44.1416 38.2112 43.4668 39.477 42.9709C41.2251 42.2861 42.8268 42.2018 43.0545 42.7828C43.1407 43.0029 43.0174 43.2869 42.7358 43.5921L36.3825 51.5095C35.8749 52.1421 34.8315 52.5549 34.0238 52.4426L32.7176 52.2611Z"
        fill="url(#paint44_linear_215_84)" />
    <path
        d="M32.7176 52.2611C31.8851 52.1455 31.6161 51.517 32.119 50.8618L36.849 44.6967C37.2157 44.1416 38.2112 43.4668 39.477 42.9709C41.2251 42.2861 42.8268 42.2018 43.0545 42.7828C43.1407 43.0029 43.0174 43.2869 42.7358 43.5921L36.3825 51.5095C35.8749 52.1421 34.8315 52.5549 34.0238 52.4426L32.7176 52.2611Z"
        fill="url(#paint45_linear_215_84)" />
    <path
        d="M32.7176 52.2611C31.8851 52.1455 31.6161 51.517 32.119 50.8618L36.849 44.6967C37.2157 44.1416 38.2112 43.4668 39.477 42.9709C41.2251 42.2861 42.8268 42.2018 43.0545 42.7828C43.1407 43.0029 43.0174 43.2869 42.7358 43.5921L36.3825 51.5095C35.8749 52.1421 34.8315 52.5549 34.0238 52.4426L32.7176 52.2611Z"
        fill="url(#paint46_linear_215_84)" />
    <path
        d="M32.7176 52.2611C31.8851 52.1455 31.6161 51.517 32.119 50.8618L36.849 44.6967C37.2157 44.1416 38.2112 43.4668 39.477 42.9709C41.2251 42.2861 42.8268 42.2018 43.0545 42.7828C43.1407 43.0029 43.0174 43.2869 42.7358 43.5921L36.3825 51.5095C35.8749 52.1421 34.8315 52.5549 34.0238 52.4426L32.7176 52.2611Z"
        fill="url(#paint47_radial_215_84)" />
    <g filter="url(#filter2_i_215_84)">
        <path
            d="M15.2255 46.7552C13.5143 42.3871 9.73801 39.782 6.79103 40.9365C3.84404 42.0911 2.8423 46.568 4.55357 50.9361C6.26484 55.3042 10.0411 57.9093 12.9881 56.7547C15.9351 55.6002 16.9368 51.1233 15.2255 46.7552Z"
            fill="url(#paint48_linear_215_84)" />
    </g>
    <path
        d="M13.94 47.2587C12.4261 43.3945 9.26996 41.0176 6.89052 41.9498C4.51109 42.8819 3.80942 46.7702 5.32331 50.6345C6.8372 54.4987 9.99337 56.8757 12.3728 55.9435C14.7522 55.0113 15.4539 51.123 13.94 47.2587Z"
        fill="url(#paint49_linear_215_84)" />
    <path
        d="M11.9343 48.0448C10.8822 45.3593 8.78344 43.6705 7.24656 44.2726C5.70967 44.8747 5.31666 47.5397 6.36873 50.2252C7.42081 52.9107 9.51957 54.5995 11.0565 53.9974C12.5933 53.3953 12.9863 50.7303 11.9343 48.0448Z"
        fill="url(#paint50_linear_215_84)" />
    <path
        d="M10.0838 48.7694C10.661 50.2428 10.5945 51.6466 9.9353 51.9048C9.27608 52.1631 8.27374 51.178 7.69652 49.7047C7.1193 48.2313 7.18577 46.8275 7.84499 46.5692C8.50421 46.311 9.50655 47.296 10.0838 48.7694Z"
        fill="#E1A161" />
    <g filter="url(#filter3_f_215_84)">
        <path d="M33.6357 51.0493L40.0452 43.0081" stroke="url(#paint51_linear_215_84)"
            stroke-width="0.929209" stroke-linecap="round" />
    </g>
    <path
        d="M22.7951 10.4144C25.136 6.76226 26.5215 3.38946 27.2445 1.00495C27.5215 0.091046 28.6919 -0.283309 29.3865 0.371901C39.8556 10.2449 43.2772 17.7826 43.96 26.4938C44.4598 34.9198 40.3183 42.4174 29.2028 42.4174C18.767 42.4174 11.0657 35.1339 12.1129 23.5901C12.7388 16.691 15.4209 11.4352 17.5653 8.30644C18.2326 7.33274 19.623 7.31862 20.3921 8.21418L22.3101 10.4478C22.4423 10.6017 22.6856 10.5851 22.7951 10.4144Z"
        fill="url(#paint52_radial_215_84)" />
    <path
        d="M22.7951 10.4144C25.136 6.76226 26.5215 3.38946 27.2445 1.00495C27.5215 0.091046 28.6919 -0.283309 29.3865 0.371901C39.8556 10.2449 43.2772 17.7826 43.96 26.4938C44.4598 34.9198 40.3183 42.4174 29.2028 42.4174C18.767 42.4174 11.0657 35.1339 12.1129 23.5901C12.7388 16.691 15.4209 11.4352 17.5653 8.30644C18.2326 7.33274 19.623 7.31862 20.3921 8.21418L22.3101 10.4478C22.4423 10.6017 22.6856 10.5851 22.7951 10.4144Z"
        fill="url(#paint53_radial_215_84)" />
    <path
        d="M22.7951 10.4144C25.136 6.76226 26.5215 3.38946 27.2445 1.00495C27.5215 0.091046 28.6919 -0.283309 29.3865 0.371901C39.8556 10.2449 43.2772 17.7826 43.96 26.4938C44.4598 34.9198 40.3183 42.4174 29.2028 42.4174C18.767 42.4174 11.0657 35.1339 12.1129 23.5901C12.7388 16.691 15.4209 11.4352 17.5653 8.30644C18.2326 7.33274 19.623 7.31862 20.3921 8.21418L22.3101 10.4478C22.4423 10.6017 22.6856 10.5851 22.7951 10.4144Z"
        fill="url(#paint54_linear_215_84)" />
    <path
        d="M22.7951 10.4144C25.136 6.76226 26.5215 3.38946 27.2445 1.00495C27.5215 0.091046 28.6919 -0.283309 29.3865 0.371901C39.8556 10.2449 43.2772 17.7826 43.96 26.4938C44.4598 34.9198 40.3183 42.4174 29.2028 42.4174C18.767 42.4174 11.0657 35.1339 12.1129 23.5901C12.7388 16.691 15.4209 11.4352 17.5653 8.30644C18.2326 7.33274 19.623 7.31862 20.3921 8.21418L22.3101 10.4478C22.4423 10.6017 22.6856 10.5851 22.7951 10.4144Z"
        fill="url(#paint55_radial_215_84)" />
    <path
        d="M22.7951 10.4144C25.136 6.76226 26.5215 3.38946 27.2445 1.00495C27.5215 0.091046 28.6919 -0.283309 29.3865 0.371901C39.8556 10.2449 43.2772 17.7826 43.96 26.4938C44.4598 34.9198 40.3183 42.4174 29.2028 42.4174C18.767 42.4174 11.0657 35.1339 12.1129 23.5901C12.7388 16.691 15.4209 11.4352 17.5653 8.30644C18.2326 7.33274 19.623 7.31862 20.3921 8.21418L22.3101 10.4478C22.4423 10.6017 22.6856 10.5851 22.7951 10.4144Z"
        fill="url(#paint56_radial_215_84)" />
    <path
        d="M22.7951 10.4144C25.136 6.76226 26.5215 3.38946 27.2445 1.00495C27.5215 0.091046 28.6919 -0.283309 29.3865 0.371901C39.8556 10.2449 43.2772 17.7826 43.96 26.4938C44.4598 34.9198 40.3183 42.4174 29.2028 42.4174C18.767 42.4174 11.0657 35.1339 12.1129 23.5901C12.7388 16.691 15.4209 11.4352 17.5653 8.30644C18.2326 7.33274 19.623 7.31862 20.3921 8.21418L22.3101 10.4478C22.4423 10.6017 22.6856 10.5851 22.7951 10.4144Z"
        fill="url(#paint57_radial_215_84)" />
    <path
        d="M22.7951 10.4144C25.136 6.76226 26.5215 3.38946 27.2445 1.00495C27.5215 0.091046 28.6919 -0.283309 29.3865 0.371901C39.8556 10.2449 43.2772 17.7826 43.96 26.4938C44.4598 34.9198 40.3183 42.4174 29.2028 42.4174C18.767 42.4174 11.0657 35.1339 12.1129 23.5901C12.7388 16.691 15.4209 11.4352 17.5653 8.30644C18.2326 7.33274 19.623 7.31862 20.3921 8.21418L22.3101 10.4478C22.4423 10.6017 22.6856 10.5851 22.7951 10.4144Z"
        fill="url(#paint58_radial_215_84)" />
    <path
        d="M22.7951 10.4144C25.136 6.76226 26.5215 3.38946 27.2445 1.00495C27.5215 0.091046 28.6919 -0.283309 29.3865 0.371901C39.8556 10.2449 43.2772 17.7826 43.96 26.4938C44.4598 34.9198 40.3183 42.4174 29.2028 42.4174C18.767 42.4174 11.0657 35.1339 12.1129 23.5901C12.7388 16.691 15.4209 11.4352 17.5653 8.30644C18.2326 7.33274 19.623 7.31862 20.3921 8.21418L22.3101 10.4478C22.4423 10.6017 22.6856 10.5851 22.7951 10.4144Z"
        fill="url(#paint59_radial_215_84)" />
    <g filter="url(#filter4_i_215_84)">
        <path
            d="M19.174 27.0819C21.1578 22.3607 25.2286 17.1363 27.9776 14.3022C28.7543 13.5014 30.0098 13.487 30.8303 14.2431C36.1028 19.1009 37.69 23.4927 39.0369 28.6052C40.438 33.9242 39.0369 42.4944 28.4931 42.4944C19.413 42.4944 16.2675 33.9985 19.174 27.0819Z"
            fill="url(#paint60_radial_215_84)" />
        <path
            d="M19.174 27.0819C21.1578 22.3607 25.2286 17.1363 27.9776 14.3022C28.7543 13.5014 30.0098 13.487 30.8303 14.2431C36.1028 19.1009 37.69 23.4927 39.0369 28.6052C40.438 33.9242 39.0369 42.4944 28.4931 42.4944C19.413 42.4944 16.2675 33.9985 19.174 27.0819Z"
            fill="url(#paint61_radial_215_84)" />
        <path
            d="M19.174 27.0819C21.1578 22.3607 25.2286 17.1363 27.9776 14.3022C28.7543 13.5014 30.0098 13.487 30.8303 14.2431C36.1028 19.1009 37.69 23.4927 39.0369 28.6052C40.438 33.9242 39.0369 42.4944 28.4931 42.4944C19.413 42.4944 16.2675 33.9985 19.174 27.0819Z"
            fill="url(#paint62_radial_215_84)" />
    </g>
    <path
        d="M19.174 27.0819C21.1578 22.3607 25.2286 17.1363 27.9776 14.3022C28.7543 13.5014 30.0098 13.487 30.8303 14.2431C36.1028 19.1009 37.69 23.4927 39.0369 28.6052C40.438 33.9242 39.0369 42.4944 28.4931 42.4944C19.413 42.4944 16.2675 33.9985 19.174 27.0819Z"
        fill="url(#paint63_linear_215_84)" />
    <path
        d="M19.174 27.0819C21.1578 22.3607 25.2286 17.1363 27.9776 14.3022C28.7543 13.5014 30.0098 13.487 30.8303 14.2431C36.1028 19.1009 37.69 23.4927 39.0369 28.6052C40.438 33.9242 39.0369 42.4944 28.4931 42.4944C19.413 42.4944 16.2675 33.9985 19.174 27.0819Z"
        fill="url(#paint64_radial_215_84)" />
    <g filter="url(#filter5_f_215_84)">
        <path
            d="M21.6651 14.3796C25.1922 9.21556 27.2548 3.62944 27.8847 2.25098C26.9661 9.31126 24.2893 14.4804 19.2506 21.1372C15.2197 26.4627 14.4919 31.0217 14.5269 32.1311C13.2672 23.6589 17.2562 20.8347 21.6651 14.3796Z"
            fill="url(#paint65_linear_215_84)" />
    </g>
    <g filter="url(#filter6_f_215_84)">
        <path
            d="M18.6187 8.79785C16.6383 11.256 12.7019 18.0742 12.7994 25.6823C14.7514 17.8792 19.3127 15.4201 18.6187 8.79785Z"
            fill="url(#paint66_linear_215_84)" />
    </g>
    <defs>
        <filter id="filter0_i_215_84" x="39.8297" y="42.3692" width="12.4357" height="16.4584"
            filterUnits="userSpaceOnUse" color-interpolation-filters="sRGB">
            <feFlood flood-opacity="0" result="BackgroundImageFix" />
            <feBlend mode="normal" in="SourceGraphic" in2="BackgroundImageFix" result="shape" />
            <feColorMatrix in="SourceAlpha" type="matrix"
                values="0 0 0 0 0 0 0 0 0 0 0 0 0 0 0 0 0 0 127 0" result="hardAlpha" />
            <feOffset dx="-0.0929209" dy="-0.0929209" />
            <feGaussianBlur stdDeviation="0.0464604" />
            <feComposite in2="hardAlpha" operator="arithmetic" k2="-1" k3="1" />
            <feColorMatrix type="matrix"
                values="0 0 0 0 0.8 0 0 0 0 0.576471 0 0 0 0 0.490196 0 0 0 1 0" />
            <feBlend mode="normal" in2="shape" result="effect1_innerShadow_215_84" />
        </filter>
        <filter id="filter1_f_215_84" x="14.5444" y="43.4136" width="9.19704" height="10.8289"
            filterUnits="userSpaceOnUse" color-interpolation-filters="sRGB">
            <feFlood flood-opacity="0" result="BackgroundImageFix" />
            <feBlend mode="normal" in="SourceGraphic" in2="BackgroundImageFix" result="shape" />
            <feGaussianBlur stdDeviation="0.464604" result="effect1_foregroundBlur_215_84" />
        </filter>
        <filter id="filter2_i_215_84" x="3.62534" y="40.5699" width="12.4357" height="16.4584"
            filterUnits="userSpaceOnUse" color-interpolation-filters="sRGB">
            <feFlood flood-opacity="0" result="BackgroundImageFix" />
            <feBlend mode="normal" in="SourceGraphic" in2="BackgroundImageFix" result="shape" />
            <feColorMatrix in="SourceAlpha" type="matrix"
                values="0 0 0 0 0 0 0 0 0 0 0 0 0 0 0 0 0 0 127 0" result="hardAlpha" />
            <feOffset dx="-0.0929209" dy="-0.0929209" />
            <feGaussianBlur stdDeviation="0.0464604" />
            <feComposite in2="hardAlpha" operator="arithmetic" k2="-1" k3="1" />
            <feColorMatrix type="matrix"
                values="0 0 0 0 0.8 0 0 0 0 0.576471 0 0 0 0 0.490196 0 0 0 1 0" />
            <feBlend mode="normal" in2="shape" result="effect1_innerShadow_215_84" />
        </filter>
        <filter id="filter3_f_215_84" x="32.2419" y="41.6142" width="9.19704" height="10.8289"
            filterUnits="userSpaceOnUse" color-interpolation-filters="sRGB">
            <feFlood flood-opacity="0" result="BackgroundImageFix" />
            <feBlend mode="normal" in="SourceGraphic" in2="BackgroundImageFix" result="shape" />
            <feGaussianBlur stdDeviation="0.464604" result="effect1_foregroundBlur_215_84" />
        </filter>
        <filter id="filter4_i_215_84" x="18.1255" y="13.6885" width="22.1269" height="28.8059"
            filterUnits="userSpaceOnUse" color-interpolation-filters="sRGB">
            <feFlood flood-opacity="0" result="BackgroundImageFix" />
            <feBlend mode="normal" in="SourceGraphic" in2="BackgroundImageFix" result="shape" />
            <feColorMatrix in="SourceAlpha" type="matrix"
                values="0 0 0 0 0 0 0 0 0 0 0 0 0 0 0 0 0 0 127 0" result="hardAlpha" />
            <feOffset dx="0.76166" />
            <feGaussianBlur stdDeviation="0.38083" />
            <feComposite in2="hardAlpha" operator="arithmetic" k2="-1" k3="1" />
            <feColorMatrix type="matrix"
                values="0 0 0 0 0.952941 0 0 0 0 0.615686 0 0 0 0 0.364706 0 0 0 1 0" />
            <feBlend mode="normal" in2="shape" result="effect1_innerShadow_215_84" />
        </filter>
        <filter id="filter5_f_215_84" x="12.3869" y="0.346828" width="17.402" height="33.6884"
            filterUnits="userSpaceOnUse" color-interpolation-filters="sRGB">
            <feFlood flood-opacity="0" result="BackgroundImageFix" />
            <feBlend mode="normal" in="SourceGraphic" in2="BackgroundImageFix" result="shape" />
            <feGaussianBlur stdDeviation="0.952074" result="effect1_foregroundBlur_215_84" />
        </filter>
        <filter id="filter6_f_215_84" x="10.5126" y="6.51287" width="10.4623" height="21.4545"
            filterUnits="userSpaceOnUse" color-interpolation-filters="sRGB">
            <feFlood flood-opacity="0" result="BackgroundImageFix" />
            <feBlend mode="normal" in="SourceGraphic" in2="BackgroundImageFix" result="shape" />
            <feGaussianBlur stdDeviation="1.14249" result="effect1_foregroundBlur_215_84" />
        </filter>
        <radialGradient id="paint0_radial_215_84" cx="0" cy="0" r="1" gradientUnits="userSpaceOnUse"
            gradientTransform="translate(40.7724 43.3829) rotate(111.394) scale(8.63665 36.9615)">
            <stop stop-color="#956860" />
            <stop offset="1" stop-color="#734544" />
        </radialGradient>
        <linearGradient id="paint1_linear_215_84" x1="28.3162" y1="53.8692" x2="31.1456" y2="46.647"
            gradientUnits="userSpaceOnUse">
            <stop stop-color="#503C39" />
            <stop offset="1" stop-color="#503C39" stop-opacity="0" />
        </linearGradient>
        <radialGradient id="paint2_radial_215_84" cx="0" cy="0" r="1" gradientUnits="userSpaceOnUse"
            gradientTransform="translate(18.0485 47.4593) rotate(32.5489) scale(7.61323 1.60849)">
            <stop offset="0.238891" stop-color="#42211C" />
            <stop offset="1" stop-color="#42211C" stop-opacity="0" />
        </radialGradient>
        <radialGradient id="paint3_radial_215_84" cx="0" cy="0" r="1" gradientUnits="userSpaceOnUse"
            gradientTransform="translate(37.6229 39.605) rotate(11.2741) scale(6.03699 1.83605)">
            <stop offset="0.240172" stop-color="#5B322A" />
            <stop offset="1" stop-color="#5B322A" stop-opacity="0" />
        </radialGradient>
        <linearGradient id="paint4_linear_215_84" x1="32.9563" y1="38.3884" x2="10.8494"
            y2="29.7277" gradientUnits="userSpaceOnUse">
            <stop stop-color="#775B52" />
            <stop offset="1" stop-color="#866861" />
        </linearGradient>
        <linearGradient id="paint5_linear_215_84" x1="12.1141" y1="46.9131" x2="13.3312"
            y2="43.8066" gradientUnits="userSpaceOnUse">
            <stop stop-color="#584341" />
            <stop offset="1" stop-color="#644240" />
        </linearGradient>
        <linearGradient id="paint6_linear_215_84" x1="42.2363" y1="56.6064" x2="28.4065"
            y2="51.1884" gradientUnits="userSpaceOnUse">
            <stop stop-color="#A26651" />
            <stop offset="1" stop-color="#8B564A" />
        </linearGradient>
        <linearGradient id="paint7_linear_215_84" x1="29.5776" y1="48.1967" x2="19.2252" y2="44.141"
            gradientUnits="userSpaceOnUse">
            <stop stop-color="#AB695C" />
            <stop offset="1" stop-color="#AB685D" />
        </linearGradient>
        <linearGradient id="paint8_linear_215_84" x1="18.826" y1="33.6358" x2="9.99906" y2="30.1777"
            gradientUnits="userSpaceOnUse">
            <stop stop-color="#DB947E" />
            <stop offset="1" stop-color="#C9897C" />
        </linearGradient>
        <radialGradient id="paint9_radial_215_84" cx="0" cy="0" r="1" gradientUnits="userSpaceOnUse"
            gradientTransform="translate(42.2849 38.1153) rotate(170.46) scale(12.8292 3.8218)">
            <stop stop-color="#704C4B" />
            <stop offset="1" stop-color="#643F3F" />
        </radialGradient>
        <radialGradient id="paint10_radial_215_84" cx="0" cy="0" r="1"
            gradientUnits="userSpaceOnUse"
            gradientTransform="translate(45.8718 37.6097) rotate(167.95) scale(1.89555 2.53554)">
            <stop offset="0.282884" stop-color="#876C62" />
            <stop offset="1" stop-color="#876C62" stop-opacity="0" />
        </radialGradient>
        <linearGradient id="paint11_linear_215_84" x1="41.6759" y1="41.0764" x2="41.309"
            y2="39.1833" gradientUnits="userSpaceOnUse">
            <stop stop-color="#4C2B22" />
            <stop offset="1" stop-color="#4C2B22" stop-opacity="0" />
        </linearGradient>
        <radialGradient id="paint12_radial_215_84" cx="0" cy="0" r="1"
            gradientUnits="userSpaceOnUse"
            gradientTransform="translate(40.9868 38.146) rotate(172.614) scale(8.58708 3.86083)">
            <stop offset="0.869286" stop-color="#785C53" stop-opacity="0" />
            <stop offset="0.960835" stop-color="#785C53" />
        </radialGradient>
        <linearGradient id="paint13_linear_215_84" x1="16.2789" y1="49.7704" x2="20.0109"
            y2="47.0002" gradientUnits="userSpaceOnUse">
            <stop stop-color="#5C3846" />
            <stop offset="1" stop-color="#654335" />
        </linearGradient>
        <linearGradient id="paint14_linear_215_84" x1="12.2348" y1="45.1011" x2="13.3225"
            y2="47.3314" gradientUnits="userSpaceOnUse">
            <stop stop-color="#5F4341" />
            <stop offset="1" stop-color="#5F4341" stop-opacity="0" />
        </linearGradient>
        <linearGradient id="paint15_linear_215_84" x1="21.7996" y1="48.8812" x2="19.6595"
            y2="50.2358" gradientUnits="userSpaceOnUse">
            <stop stop-color="#84645A" />
            <stop offset="1" stop-color="#84645A" stop-opacity="0" />
        </linearGradient>
        <radialGradient id="paint16_radial_215_84" cx="0" cy="0" r="1"
            gradientUnits="userSpaceOnUse"
            gradientTransform="translate(22.6572 54.0829) rotate(-127.082) scale(1.86851 3.9695)">
            <stop offset="0.0569299" stop-color="#634E48" />
            <stop offset="1" stop-color="#634E48" stop-opacity="0" />
        </radialGradient>
        <linearGradient id="paint17_linear_215_84" x1="16.2789" y1="49.7704" x2="20.0109"
            y2="47.0002" gradientUnits="userSpaceOnUse">
            <stop stop-color="#5C3846" />
            <stop offset="1" stop-color="#654335" />
        </linearGradient>
        <linearGradient id="paint18_linear_215_84" x1="12.2348" y1="45.1011" x2="13.3225"
            y2="47.3314" gradientUnits="userSpaceOnUse">
            <stop stop-color="#5F4341" />
            <stop offset="1" stop-color="#5F4341" stop-opacity="0" />
        </linearGradient>
        <linearGradient id="paint19_linear_215_84" x1="21.7996" y1="48.8812" x2="19.6595"
            y2="50.2358" gradientUnits="userSpaceOnUse">
            <stop stop-color="#84645A" />
            <stop offset="1" stop-color="#84645A" stop-opacity="0" />
        </linearGradient>
        <linearGradient id="paint20_linear_215_84" x1="21.0433" y1="48.8698" x2="20.747"
            y2="49.1123" gradientUnits="userSpaceOnUse">
            <stop stop-color="#664336" />
            <stop offset="1" stop-color="#664336" stop-opacity="0" />
        </linearGradient>
        <radialGradient id="paint21_radial_215_84" cx="0" cy="0" r="1"
            gradientUnits="userSpaceOnUse"
            gradientTransform="translate(22.6572 54.0829) rotate(-127.082) scale(1.86851 3.9695)">
            <stop offset="0.0569299" stop-color="#634E48" />
            <stop offset="1" stop-color="#634E48" stop-opacity="0" />
        </radialGradient>
        <linearGradient id="paint22_linear_215_84" x1="42.4613" y1="59.9178" x2="48.1563"
            y2="45.3812" gradientUnits="userSpaceOnUse">
            <stop stop-color="#A77562" />
            <stop offset="1" stop-color="#C08067" />
        </linearGradient>
        <linearGradient id="paint23_linear_215_84" x1="49.0497" y1="45.3752" x2="44.5464" y2="56.87"
            gradientUnits="userSpaceOnUse">
            <stop stop-color="#E4A261" />
            <stop offset="1" stop-color="#DAA061" />
        </linearGradient>
        <linearGradient id="paint24_linear_215_84" x1="47.6759" y1="55.1478" x2="49.1239"
            y2="45.3073" gradientUnits="userSpaceOnUse">
            <stop stop-color="#B77E65" />
            <stop offset="1" stop-color="#BB7E65" />
        </linearGradient>
        <linearGradient id="paint25_linear_215_84" x1="22.5499" y1="52.9767" x2="20.9308"
            y2="43.1793" gradientUnits="userSpaceOnUse">
            <stop stop-color="#87685F" />
            <stop offset="1" stop-color="#87685F" stop-opacity="0" />
        </linearGradient>
        <radialGradient id="paint26_radial_215_84" cx="0" cy="0" r="1"
            gradientUnits="userSpaceOnUse"
            gradientTransform="translate(15.2112 41.5836) rotate(68.6064) scale(8.63665 36.9615)">
            <stop stop-color="#956860" />
            <stop offset="1" stop-color="#734544" />
        </radialGradient>
        <linearGradient id="paint27_linear_215_84" x1="27.6675" y1="52.0698" x2="24.8381"
            y2="44.8477" gradientUnits="userSpaceOnUse">
            <stop stop-color="#503C39" />
            <stop offset="1" stop-color="#503C39" stop-opacity="0" />
        </linearGradient>
        <radialGradient id="paint28_radial_215_84" cx="0" cy="0" r="1"
            gradientUnits="userSpaceOnUse"
            gradientTransform="translate(37.9351 45.66) rotate(147.451) scale(7.61323 1.60849)">
            <stop offset="0.238891" stop-color="#42211C" />
            <stop offset="1" stop-color="#42211C" stop-opacity="0" />
        </radialGradient>
        <radialGradient id="paint29_radial_215_84" cx="0" cy="0" r="1"
            gradientUnits="userSpaceOnUse"
            gradientTransform="translate(18.3607 37.8057) rotate(168.726) scale(6.03699 1.83605)">
            <stop offset="0.240172" stop-color="#5B322A" />
            <stop offset="1" stop-color="#5B322A" stop-opacity="0" />
        </radialGradient>
        <linearGradient id="paint30_linear_215_84" x1="23.0271" y1="36.5891" x2="45.134"
            y2="27.9283" gradientUnits="userSpaceOnUse">
            <stop stop-color="#775B52" />
            <stop offset="1" stop-color="#866861" />
        </linearGradient>
        <linearGradient id="paint31_linear_215_84" x1="43.8693" y1="45.1138" x2="42.6522"
            y2="42.0072" gradientUnits="userSpaceOnUse">
            <stop stop-color="#584341" />
            <stop offset="1" stop-color="#644240" />
        </linearGradient>
        <linearGradient id="paint32_linear_215_84" x1="13.7471" y1="54.8071" x2="27.5769"
            y2="49.3891" gradientUnits="userSpaceOnUse">
            <stop stop-color="#A26651" />
            <stop offset="1" stop-color="#8B564A" />
        </linearGradient>
        <linearGradient id="paint33_linear_215_84" x1="26.4058" y1="46.3974" x2="36.7582"
            y2="42.3417" gradientUnits="userSpaceOnUse">
            <stop stop-color="#AB695C" />
            <stop offset="1" stop-color="#AB685D" />
        </linearGradient>
        <linearGradient id="paint34_linear_215_84" x1="37.1574" y1="31.8365" x2="45.9843"
            y2="28.3784" gradientUnits="userSpaceOnUse">
            <stop stop-color="#DB947E" />
            <stop offset="1" stop-color="#C9897C" />
        </linearGradient>
        <radialGradient id="paint35_radial_215_84" cx="0" cy="0" r="1"
            gradientUnits="userSpaceOnUse"
            gradientTransform="translate(13.6985 36.316) rotate(9.53961) scale(12.8292 3.8218)">
            <stop stop-color="#704C4B" />
            <stop offset="1" stop-color="#643F3F" />
        </radialGradient>
        <radialGradient id="paint36_radial_215_84" cx="0" cy="0" r="1"
            gradientUnits="userSpaceOnUse"
            gradientTransform="translate(10.1116 35.8104) rotate(12.0502) scale(1.89555 2.53554)">
            <stop offset="0.282884" stop-color="#876C62" />
            <stop offset="1" stop-color="#876C62" stop-opacity="0" />
        </radialGradient>
        <linearGradient id="paint37_linear_215_84" x1="14.3075" y1="39.2771" x2="14.6744"
            y2="37.3839" gradientUnits="userSpaceOnUse">
            <stop stop-color="#4C2B22" />
            <stop offset="1" stop-color="#4C2B22" stop-opacity="0" />
        </linearGradient>
        <radialGradient id="paint38_radial_215_84" cx="0" cy="0" r="1"
            gradientUnits="userSpaceOnUse"
            gradientTransform="translate(14.9966 36.3467) rotate(7.38648) scale(8.58708 3.86083)">
            <stop offset="0.869286" stop-color="#785C53" stop-opacity="0" />
            <stop offset="0.960835" stop-color="#785C53" />
        </radialGradient>
        <linearGradient id="paint39_linear_215_84" x1="39.7048" y1="47.971" x2="35.9728"
            y2="45.2009" gradientUnits="userSpaceOnUse">
            <stop stop-color="#5C3846" />
            <stop offset="1" stop-color="#654335" />
        </linearGradient>
        <linearGradient id="paint40_linear_215_84" x1="43.7489" y1="43.3018" x2="42.6611"
            y2="45.5321" gradientUnits="userSpaceOnUse">
            <stop stop-color="#5F4341" />
            <stop offset="1" stop-color="#5F4341" stop-opacity="0" />
        </linearGradient>
        <linearGradient id="paint41_linear_215_84" x1="34.1841" y1="47.0819" x2="36.3241"
            y2="48.4365" gradientUnits="userSpaceOnUse">
            <stop stop-color="#84645A" />
            <stop offset="1" stop-color="#84645A" stop-opacity="0" />
        </linearGradient>
        <radialGradient id="paint42_radial_215_84" cx="0" cy="0" r="1"
            gradientUnits="userSpaceOnUse"
            gradientTransform="translate(33.3264 52.2836) rotate(-52.918) scale(1.86851 3.9695)">
            <stop offset="0.0569299" stop-color="#634E48" />
            <stop offset="1" stop-color="#634E48" stop-opacity="0" />
        </radialGradient>
        <linearGradient id="paint43_linear_215_84" x1="39.7048" y1="47.971" x2="35.9728"
            y2="45.2009" gradientUnits="userSpaceOnUse">
            <stop stop-color="#5C3846" />
            <stop offset="1" stop-color="#654335" />
        </linearGradient>
        <linearGradient id="paint44_linear_215_84" x1="43.7489" y1="43.3018" x2="42.6611"
            y2="45.5321" gradientUnits="userSpaceOnUse">
            <stop stop-color="#5F4341" />
            <stop offset="1" stop-color="#5F4341" stop-opacity="0" />
        </linearGradient>
        <linearGradient id="paint45_linear_215_84" x1="34.1841" y1="47.0819" x2="36.3241"
            y2="48.4365" gradientUnits="userSpaceOnUse">
            <stop stop-color="#84645A" />
            <stop offset="1" stop-color="#84645A" stop-opacity="0" />
        </linearGradient>
        <linearGradient id="paint46_linear_215_84" x1="34.9403" y1="47.0704" x2="35.2367"
            y2="47.3129" gradientUnits="userSpaceOnUse">
            <stop stop-color="#664336" />
            <stop offset="1" stop-color="#664336" stop-opacity="0" />
        </linearGradient>
        <radialGradient id="paint47_radial_215_84" cx="0" cy="0" r="1"
            gradientUnits="userSpaceOnUse"
            gradientTransform="translate(33.3264 52.2836) rotate(-52.918) scale(1.86851 3.9695)">
            <stop offset="0.0569299" stop-color="#634E48" />
            <stop offset="1" stop-color="#634E48" stop-opacity="0" />
        </radialGradient>
        <linearGradient id="paint48_linear_215_84" x1="13.5223" y1="58.1184" x2="7.82738"
            y2="43.5818" gradientUnits="userSpaceOnUse">
            <stop stop-color="#A77562" />
            <stop offset="1" stop-color="#C08067" />
        </linearGradient>
        <linearGradient id="paint49_linear_215_84" x1="6.93367" y1="43.5758" x2="11.437"
            y2="55.0707" gradientUnits="userSpaceOnUse">
            <stop stop-color="#E4A261" />
            <stop offset="1" stop-color="#DAA061" />
        </linearGradient>
        <linearGradient id="paint50_linear_215_84" x1="8.30755" y1="53.3485" x2="6.85946"
            y2="43.508" gradientUnits="userSpaceOnUse">
            <stop stop-color="#B77E65" />
            <stop offset="1" stop-color="#BB7E65" />
        </linearGradient>
        <linearGradient id="paint51_linear_215_84" x1="33.4335" y1="51.1773" x2="35.0526" y2="41.38"
            gradientUnits="userSpaceOnUse">
            <stop stop-color="#87685F" />
            <stop offset="1" stop-color="#87685F" stop-opacity="0" />
        </linearGradient>
        <radialGradient id="paint52_radial_215_84" cx="0" cy="0" r="1"
            gradientUnits="userSpaceOnUse"
            gradientTransform="translate(40.2324 26.843) rotate(-179.474) scale(26.0469 39.2805)">
            <stop stop-color="#FF953D" />
            <stop offset="1" stop-color="#FF5141" />
        </radialGradient>
        <radialGradient id="paint53_radial_215_84" cx="0" cy="0" r="1"
            gradientUnits="userSpaceOnUse"
            gradientTransform="translate(19.4697 20.6505) rotate(-157.937) scale(15.7574 27.1905)">
            <stop stop-color="#CE5327" />
            <stop offset="1" stop-color="#CE5327" stop-opacity="0" />
        </radialGradient>
        <linearGradient id="paint54_linear_215_84" x1="31.6015" y1="42.4174" x2="31.6015"
            y2="34.6507" gradientUnits="userSpaceOnUse">
            <stop stop-color="#FF7583" />
            <stop offset="1" stop-color="#FF7583" stop-opacity="0" />
        </linearGradient>
        <radialGradient id="paint55_radial_215_84" cx="0" cy="0" r="1"
            gradientUnits="userSpaceOnUse"
            gradientTransform="translate(11.2206 18.7258) rotate(24.0149) scale(4.72937 39.1479)">
            <stop stop-color="#FFAA7B" />
            <stop offset="1" stop-color="#FFAA7B" stop-opacity="0" />
        </radialGradient>
        <radialGradient id="paint56_radial_215_84" cx="0" cy="0" r="1"
            gradientUnits="userSpaceOnUse"
            gradientTransform="translate(17.8519 6.32531) rotate(77.3196) scale(5.85008 7.29955)">
            <stop stop-color="#FF5E47" />
            <stop offset="1" stop-color="#FF5E47" stop-opacity="0" />
        </radialGradient>
        <radialGradient id="paint57_radial_215_84" cx="0" cy="0" r="1"
            gradientUnits="userSpaceOnUse"
            gradientTransform="translate(28.6959 -1.11628) rotate(87.8819) scale(15.4425 14.2936)">
            <stop stop-color="#FF2F3C" />
            <stop offset="1" stop-color="#FF2F3C" stop-opacity="0" />
        </radialGradient>
        <radialGradient id="paint58_radial_215_84" cx="0" cy="0" r="1"
            gradientUnits="userSpaceOnUse"
            gradientTransform="translate(24.8434 4.11369) rotate(25.3285) scale(3.50204 7.02786)">
            <stop stop-color="#FF846C" />
            <stop offset="1" stop-color="#FF846C" stop-opacity="0" />
        </radialGradient>
        <radialGradient id="paint59_radial_215_84" cx="0" cy="0" r="1"
            gradientUnits="userSpaceOnUse"
            gradientTransform="translate(22.6463 9.30894) rotate(113.224) scale(3.47069 0.795349)">
            <stop stop-color="#FFA682" />
            <stop offset="1" stop-color="#FFA682" stop-opacity="0" />
        </radialGradient>
        <radialGradient id="paint60_radial_215_84" cx="0" cy="0" r="1"
            gradientUnits="userSpaceOnUse"
            gradientTransform="translate(35.9707 33.9358) rotate(-168.558) scale(15.2775 19.0249)">
            <stop stop-color="#FFDA2F" />
            <stop offset="1" stop-color="#FF8E41" />
        </radialGradient>
        <radialGradient id="paint61_radial_215_84" cx="0" cy="0" r="1"
            gradientUnits="userSpaceOnUse"
            gradientTransform="translate(22.5605 9.89235) rotate(69.0442) scale(21.5435 18.7184)">
            <stop stop-color="#FD5639" />
            <stop offset="1" stop-color="#FE5533" stop-opacity="0" />
        </radialGradient>
        <radialGradient id="paint62_radial_215_84" cx="0" cy="0" r="1"
            gradientUnits="userSpaceOnUse"
            gradientTransform="translate(32.9765 28.2274) rotate(174.239) scale(14.9265 36.5466)">
            <stop offset="0.627719" stop-color="#D7812D" stop-opacity="0" />
            <stop offset="1" stop-color="#D7812D" />
        </radialGradient>
        <linearGradient id="paint63_linear_215_84" x1="28.8081" y1="12.9688" x2="28.8081"
            y2="18.5248" gradientUnits="userSpaceOnUse">
            <stop stop-color="#F95131" />
            <stop offset="1" stop-color="#F95131" stop-opacity="0" />
        </linearGradient>
        <radialGradient id="paint64_radial_215_84" cx="0" cy="0" r="1"
            gradientUnits="userSpaceOnUse"
            gradientTransform="translate(38.6839 25.4449) rotate(143.063) scale(24.4563 17.697)">
            <stop offset="0.772305" stop-color="#F18A52" stop-opacity="0" />
            <stop offset="1" stop-color="#F18A52" />
        </radialGradient>
        <linearGradient id="paint65_linear_215_84" x1="26.5123" y1="3.28481" x2="15.3308"
            y2="31.4307" gradientUnits="userSpaceOnUse">
            <stop stop-color="#FF7558" />
            <stop offset="1" stop-color="#F38758" />
        </linearGradient>
        <linearGradient id="paint66_linear_215_84" x1="18.2033" y1="9.2084" x2="12.1727"
            y2="26.4761" gradientUnits="userSpaceOnUse">
            <stop stop-color="#FF815B" />
            <stop offset="1" stop-color="#FF9C6D" />
        </linearGradient>
    </defs>
</svg>